<mxfile host="app.diagrams.net" modified="2022-10-28T04:49:59.620Z" agent="5.0 (Windows NT 10.0; Win64; x64) AppleWebKit/537.36 (KHTML, like Gecko) Chrome/106.0.0.0 Safari/537.36" etag="7P1rF_8WehBkPcQogIUI" version="20.5.1" type="github">
  <diagram id="-qBG8HWE5_lNDRaF0AOu" name="Page-1">
    <mxGraphModel dx="1038" dy="1747" grid="1" gridSize="10" guides="1" tooltips="1" connect="1" arrows="1" fold="1" page="1" pageScale="1" pageWidth="827" pageHeight="1169" math="0" shadow="0">
      <root>
        <mxCell id="0" />
        <mxCell id="1" parent="0" />
        <mxCell id="0zBBMsucabxhlh_WsM05-5" style="edgeStyle=orthogonalEdgeStyle;rounded=0;orthogonalLoop=1;jettySize=auto;html=1;" edge="1" parent="1" source="0zBBMsucabxhlh_WsM05-1" target="0zBBMsucabxhlh_WsM05-15">
          <mxGeometry relative="1" as="geometry">
            <Array as="points">
              <mxPoint x="654.5" y="-754" />
              <mxPoint x="654.5" y="-754" />
            </Array>
          </mxGeometry>
        </mxCell>
        <mxCell id="0zBBMsucabxhlh_WsM05-1" value="scraper_cmc_lambda_function.py" style="outlineConnect=0;dashed=0;verticalLabelPosition=bottom;verticalAlign=top;align=center;html=1;shape=mxgraph.aws3.lambda_function;fillColor=#F58534;gradientColor=none;" vertex="1" parent="1">
          <mxGeometry x="164.5" y="-790" width="69" height="72" as="geometry" />
        </mxCell>
        <mxCell id="0zBBMsucabxhlh_WsM05-9" value="" style="edgeStyle=orthogonalEdgeStyle;rounded=0;orthogonalLoop=1;jettySize=auto;html=1;entryX=0;entryY=0.5;entryDx=0;entryDy=0;entryPerimeter=0;" edge="1" parent="1" source="0zBBMsucabxhlh_WsM05-4" target="0zBBMsucabxhlh_WsM05-6">
          <mxGeometry relative="1" as="geometry">
            <mxPoint x="509.5066391265859" y="-819" as="targetPoint" />
          </mxGeometry>
        </mxCell>
        <mxCell id="0zBBMsucabxhlh_WsM05-4" value="Raw bucket" style="sketch=0;outlineConnect=0;fontColor=#232F3E;gradientColor=none;fillColor=#3F8624;strokeColor=none;dashed=0;verticalLabelPosition=bottom;verticalAlign=top;align=center;html=1;fontSize=12;fontStyle=0;aspect=fixed;pointerEvents=1;shape=mxgraph.aws4.bucket;" vertex="1" parent="1">
          <mxGeometry x="334.5" y="-923" width="75" height="78" as="geometry" />
        </mxCell>
        <mxCell id="0zBBMsucabxhlh_WsM05-17" style="edgeStyle=orthogonalEdgeStyle;rounded=0;orthogonalLoop=1;jettySize=auto;html=1;" edge="1" parent="1" source="0zBBMsucabxhlh_WsM05-6" target="0zBBMsucabxhlh_WsM05-15">
          <mxGeometry relative="1" as="geometry">
            <Array as="points">
              <mxPoint x="624.5" y="-884" />
              <mxPoint x="624.5" y="-770" />
            </Array>
          </mxGeometry>
        </mxCell>
        <mxCell id="0zBBMsucabxhlh_WsM05-6" value="transform_lambda_function.py" style="outlineConnect=0;dashed=0;verticalLabelPosition=bottom;verticalAlign=top;align=center;html=1;shape=mxgraph.aws3.lambda_function;fillColor=#F58534;gradientColor=none;" vertex="1" parent="1">
          <mxGeometry x="494.5" y="-920" width="69" height="72" as="geometry" />
        </mxCell>
        <mxCell id="0zBBMsucabxhlh_WsM05-11" style="edgeStyle=orthogonalEdgeStyle;rounded=0;orthogonalLoop=1;jettySize=auto;html=1;" edge="1" parent="1" source="0zBBMsucabxhlh_WsM05-10" target="0zBBMsucabxhlh_WsM05-4">
          <mxGeometry relative="1" as="geometry">
            <Array as="points">
              <mxPoint x="364.5" y="-884" />
              <mxPoint x="364.5" y="-884" />
            </Array>
          </mxGeometry>
        </mxCell>
        <mxCell id="0zBBMsucabxhlh_WsM05-10" value="scraper_nabeb_lambda_function.py" style="outlineConnect=0;dashed=0;verticalLabelPosition=bottom;verticalAlign=top;align=center;html=1;shape=mxgraph.aws3.lambda_function;fillColor=#F58534;gradientColor=none;" vertex="1" parent="1">
          <mxGeometry x="164.5" y="-920" width="69" height="72" as="geometry" />
        </mxCell>
        <mxCell id="0zBBMsucabxhlh_WsM05-19" style="edgeStyle=orthogonalEdgeStyle;rounded=0;orthogonalLoop=1;jettySize=auto;html=1;entryX=0;entryY=0.5;entryDx=0;entryDy=0;entryPerimeter=0;" edge="1" parent="1" source="0zBBMsucabxhlh_WsM05-15" target="0zBBMsucabxhlh_WsM05-18">
          <mxGeometry relative="1" as="geometry" />
        </mxCell>
        <mxCell id="0zBBMsucabxhlh_WsM05-15" value="Transformed bucket" style="sketch=0;outlineConnect=0;fontColor=#232F3E;gradientColor=none;fillColor=#3F8624;strokeColor=none;dashed=0;verticalLabelPosition=bottom;verticalAlign=top;align=center;html=1;fontSize=12;fontStyle=0;aspect=fixed;pointerEvents=1;shape=mxgraph.aws4.bucket;" vertex="1" parent="1">
          <mxGeometry x="664.5" y="-800" width="75" height="78" as="geometry" />
        </mxCell>
        <mxCell id="0zBBMsucabxhlh_WsM05-21" value="" style="edgeStyle=orthogonalEdgeStyle;rounded=0;orthogonalLoop=1;jettySize=auto;html=1;entryX=0;entryY=0.5;entryDx=0;entryDy=0;entryPerimeter=0;" edge="1" parent="1" source="0zBBMsucabxhlh_WsM05-18" target="0zBBMsucabxhlh_WsM05-22">
          <mxGeometry relative="1" as="geometry">
            <mxPoint x="983.5" y="-761" as="targetPoint" />
          </mxGeometry>
        </mxCell>
        <mxCell id="0zBBMsucabxhlh_WsM05-18" value="reporting.py" style="outlineConnect=0;dashed=0;verticalLabelPosition=bottom;verticalAlign=top;align=center;html=1;shape=mxgraph.aws3.lambda_function;fillColor=#F58534;gradientColor=none;" vertex="1" parent="1">
          <mxGeometry x="834.5" y="-797" width="69" height="72" as="geometry" />
        </mxCell>
        <mxCell id="0zBBMsucabxhlh_WsM05-22" value="SNS email" style="sketch=0;points=[[0,0,0],[0.25,0,0],[0.5,0,0],[0.75,0,0],[1,0,0],[0,1,0],[0.25,1,0],[0.5,1,0],[0.75,1,0],[1,1,0],[0,0.25,0],[0,0.5,0],[0,0.75,0],[1,0.25,0],[1,0.5,0],[1,0.75,0]];outlineConnect=0;fontColor=#232F3E;gradientColor=#FF4F8B;gradientDirection=north;fillColor=#BC1356;strokeColor=#ffffff;dashed=0;verticalLabelPosition=bottom;verticalAlign=top;align=center;html=1;fontSize=12;fontStyle=0;aspect=fixed;shape=mxgraph.aws4.resourceIcon;resIcon=mxgraph.aws4.sns;" vertex="1" parent="1">
          <mxGeometry x="984.5" y="-800" width="78" height="78" as="geometry" />
        </mxCell>
        <mxCell id="0zBBMsucabxhlh_WsM05-25" style="edgeStyle=orthogonalEdgeStyle;rounded=0;orthogonalLoop=1;jettySize=auto;html=1;" edge="1" parent="1" source="0zBBMsucabxhlh_WsM05-23" target="0zBBMsucabxhlh_WsM05-1">
          <mxGeometry relative="1" as="geometry" />
        </mxCell>
        <mxCell id="0zBBMsucabxhlh_WsM05-23" value="Cron trigger" style="sketch=0;points=[[0,0,0],[0.25,0,0],[0.5,0,0],[0.75,0,0],[1,0,0],[0,1,0],[0.25,1,0],[0.5,1,0],[0.75,1,0],[1,1,0],[0,0.25,0],[0,0.5,0],[0,0.75,0],[1,0.25,0],[1,0.5,0],[1,0.75,0]];outlineConnect=0;fontColor=#232F3E;gradientColor=#FF4F8B;gradientDirection=north;fillColor=#BC1356;strokeColor=#ffffff;dashed=0;verticalLabelPosition=bottom;verticalAlign=top;align=center;html=1;fontSize=12;fontStyle=0;aspect=fixed;shape=mxgraph.aws4.resourceIcon;resIcon=mxgraph.aws4.eventbridge;" vertex="1" parent="1">
          <mxGeometry x="160" y="-640" width="78" height="78" as="geometry" />
        </mxCell>
        <mxCell id="0zBBMsucabxhlh_WsM05-26" style="edgeStyle=orthogonalEdgeStyle;rounded=0;orthogonalLoop=1;jettySize=auto;html=1;entryX=0.5;entryY=0;entryDx=0;entryDy=0;entryPerimeter=0;" edge="1" parent="1" source="0zBBMsucabxhlh_WsM05-24" target="0zBBMsucabxhlh_WsM05-10">
          <mxGeometry relative="1" as="geometry" />
        </mxCell>
        <mxCell id="0zBBMsucabxhlh_WsM05-24" value="Cron trigger" style="sketch=0;points=[[0,0,0],[0.25,0,0],[0.5,0,0],[0.75,0,0],[1,0,0],[0,1,0],[0.25,1,0],[0.5,1,0],[0.75,1,0],[1,1,0],[0,0.25,0],[0,0.5,0],[0,0.75,0],[1,0.25,0],[1,0.5,0],[1,0.75,0]];outlineConnect=0;fontColor=#232F3E;gradientColor=#FF4F8B;gradientDirection=north;fillColor=#BC1356;strokeColor=#ffffff;dashed=0;verticalLabelPosition=bottom;verticalAlign=top;align=center;html=1;fontSize=12;fontStyle=0;aspect=fixed;shape=mxgraph.aws4.resourceIcon;resIcon=mxgraph.aws4.eventbridge;" vertex="1" parent="1">
          <mxGeometry x="160" y="-1080" width="78" height="78" as="geometry" />
        </mxCell>
        <mxCell id="0zBBMsucabxhlh_WsM05-28" style="edgeStyle=orthogonalEdgeStyle;rounded=0;orthogonalLoop=1;jettySize=auto;html=1;entryX=0.5;entryY=0;entryDx=0;entryDy=0;entryPerimeter=0;" edge="1" parent="1" source="0zBBMsucabxhlh_WsM05-27" target="0zBBMsucabxhlh_WsM05-6">
          <mxGeometry relative="1" as="geometry" />
        </mxCell>
        <mxCell id="0zBBMsucabxhlh_WsM05-27" value="Cron trigger" style="sketch=0;points=[[0,0,0],[0.25,0,0],[0.5,0,0],[0.75,0,0],[1,0,0],[0,1,0],[0.25,1,0],[0.5,1,0],[0.75,1,0],[1,1,0],[0,0.25,0],[0,0.5,0],[0,0.75,0],[1,0.25,0],[1,0.5,0],[1,0.75,0]];outlineConnect=0;fontColor=#232F3E;gradientColor=#FF4F8B;gradientDirection=north;fillColor=#BC1356;strokeColor=#ffffff;dashed=0;verticalLabelPosition=bottom;verticalAlign=top;align=center;html=1;fontSize=12;fontStyle=0;aspect=fixed;shape=mxgraph.aws4.resourceIcon;resIcon=mxgraph.aws4.eventbridge;" vertex="1" parent="1">
          <mxGeometry x="490" y="-1080" width="78" height="78" as="geometry" />
        </mxCell>
        <mxCell id="0zBBMsucabxhlh_WsM05-30" style="edgeStyle=orthogonalEdgeStyle;rounded=0;orthogonalLoop=1;jettySize=auto;html=1;" edge="1" parent="1" source="0zBBMsucabxhlh_WsM05-31">
          <mxGeometry relative="1" as="geometry">
            <mxPoint x="869" y="-800" as="targetPoint" />
          </mxGeometry>
        </mxCell>
        <mxCell id="0zBBMsucabxhlh_WsM05-31" value="Cron trigger" style="sketch=0;points=[[0,0,0],[0.25,0,0],[0.5,0,0],[0.75,0,0],[1,0,0],[0,1,0],[0.25,1,0],[0.5,1,0],[0.75,1,0],[1,1,0],[0,0.25,0],[0,0.5,0],[0,0.75,0],[1,0.25,0],[1,0.5,0],[1,0.75,0]];outlineConnect=0;fontColor=#232F3E;gradientColor=#FF4F8B;gradientDirection=north;fillColor=#BC1356;strokeColor=#ffffff;dashed=0;verticalLabelPosition=bottom;verticalAlign=top;align=center;html=1;fontSize=12;fontStyle=0;aspect=fixed;shape=mxgraph.aws4.resourceIcon;resIcon=mxgraph.aws4.eventbridge;" vertex="1" parent="1">
          <mxGeometry x="830" y="-960" width="78" height="78" as="geometry" />
        </mxCell>
      </root>
    </mxGraphModel>
  </diagram>
</mxfile>
